<svg width="684" height="409" viewBox="0 0 684 409" fill="none" xmlns="http://www.w3.org/2000/svg">
<g clip-path="url(#clip0)">
<path d="M523.135 403.887C514.387 396.495 509.074 384.818 510.467 373.45C511.861 362.083 520.492 351.632 531.687 349.218C542.882 346.804 555.644 353.487 559.045 364.423C560.916 343.338 563.073 321.37 574.283 303.415C584.433 287.157 602.013 275.523 621.067 273.442C640.12 271.361 660.181 279.221 672.063 294.26C683.946 309.298 686.856 331.161 678.533 348.427C672.402 361.146 661.107 370.611 649.273 378.312C611.031 402.986 565.165 413.02 520.114 406.567L523.135 403.887Z" fill="#F2F2F2"/>
<path d="M653.222 279.657C637.501 292.462 623.078 306.784 610.163 322.415C589.95 346.793 573.594 374.126 561.664 403.461C560.79 405.601 564.266 406.533 565.129 404.417C584.649 356.741 615.81 314.721 655.763 282.198C657.557 280.737 655.001 278.208 653.222 279.657Z" fill="white"/>
<path d="M219.959 401.878C231.974 391.725 239.272 375.687 237.358 360.074C235.444 344.46 223.59 330.107 208.213 326.791C192.836 323.476 175.308 332.654 170.637 347.675C168.067 318.715 165.105 288.542 149.708 263.88C135.767 241.549 111.62 225.571 85.4502 222.712C59.2805 219.854 31.7271 230.65 15.4061 251.306C-0.915043 271.961 -4.91119 301.99 6.51967 325.704C14.9404 343.173 30.4543 356.174 46.7091 366.751C98.5673 400.495 162.897 414.569 224.108 405.56" fill="#F2F2F2"/>
<path d="M41.2848 231.249C62.8781 248.837 82.6876 268.508 100.427 289.977C118.169 311.424 133.789 334.541 147.067 359.004C154.49 372.727 161.157 386.844 167.04 401.294C168.239 404.233 163.467 405.513 162.28 402.606C151.86 377.132 138.968 352.74 123.79 329.78C108.685 306.904 91.3966 285.547 72.1677 266.009C61.2918 254.963 49.8167 244.524 37.7946 234.739C35.3304 232.732 38.8409 229.259 41.2848 231.249L41.2848 231.249Z" fill="white"/>
<path d="M490.469 407.612H203.806V113.487C203.806 50.9101 254.716 0 317.293 0H376.982C439.559 0 490.469 50.9101 490.469 113.487V407.612Z" fill="#F2F2F2"/>
<path d="M430.781 407.612H203.806V113.487C203.743 89.5091 211.336 66.137 225.479 46.7738C226 46.0632 226.52 45.3618 227.057 44.6681C233.897 35.6959 242.038 27.7943 251.21 21.224C251.728 20.847 252.249 20.4766 252.777 20.1062C260.451 14.795 268.754 10.4532 277.494 7.17961C278.013 6.98288 278.542 6.78576 279.07 6.5967C286.975 3.77568 295.169 1.84329 303.502 0.835217C304.019 0.764651 304.549 0.709432 305.079 0.654212C313.199 -0.214002 321.389 -0.214002 329.509 0.654212C330.038 0.709432 330.568 0.764644 331.091 0.835972C339.421 1.84411 347.613 3.77626 355.516 6.59673C356.045 6.7858 356.573 6.9829 357.094 7.18002C365.727 10.4123 373.931 14.6893 381.524 19.9156C382.052 20.278 382.58 20.6484 383.1 21.0189C388.241 24.6888 393.07 28.7772 397.538 33.2425C401.121 36.8242 404.46 40.642 407.532 44.6704C408.066 45.3618 408.586 46.0632 409.107 46.7727C423.25 66.1361 430.843 89.5087 430.781 113.487V407.612Z" fill="#CCCCCC"/>
<path d="M412.324 276.061C419.264 276.061 424.89 270.435 424.89 263.495C424.89 256.555 419.264 250.929 412.324 250.929C405.384 250.929 399.758 256.555 399.758 263.495C399.758 270.435 405.384 276.061 412.324 276.061Z" fill="#38D39F"/>
<path d="M466.986 398.802H457.357L452.776 361.663L466.987 361.664L466.986 398.802Z" fill="#FFB8B8"/>
<path d="M450.479 396.051H469.049V407.743H438.787C438.787 406.207 439.09 404.687 439.677 403.269C440.265 401.85 441.126 400.561 442.212 399.475C443.298 398.39 444.586 397.529 446.005 396.941C447.423 396.353 448.944 396.051 450.479 396.051V396.051Z" fill="#2F2E41"/>
<path d="M514.894 398.802H505.265L500.684 361.663L514.896 361.664L514.894 398.802Z" fill="#FFB8B8"/>
<path d="M498.387 396.051H516.957V407.743H486.696C486.696 406.207 486.998 404.687 487.586 403.269C488.173 401.85 489.034 400.561 490.12 399.475C491.206 398.39 492.495 397.529 493.913 396.941C495.332 396.353 496.852 396.051 498.387 396.051V396.051Z" fill="#2F2E41"/>
<path d="M418.684 265.984C417.991 264.964 417.531 263.803 417.335 262.586C417.139 261.368 417.212 260.122 417.55 258.936C417.888 257.749 418.482 256.652 419.29 255.72C420.098 254.788 421.1 254.044 422.226 253.541L454.958 163.327L471.064 172.117L433.691 258.329C434.41 260.277 434.39 262.421 433.634 264.355C432.877 266.289 431.438 267.879 429.588 268.822C427.738 269.766 425.606 269.998 423.597 269.475C421.587 268.952 419.839 267.71 418.684 265.984V265.984Z" fill="#FFB8B8"/>
<path d="M509.975 282.936C508.905 282.322 507.983 281.482 507.273 280.473C506.563 279.464 506.083 278.312 505.866 277.098C505.649 275.884 505.702 274.637 506.019 273.445C506.337 272.253 506.911 271.145 507.703 270.2L497.564 174.769L515.892 175.606L520.107 269.475C521.607 270.91 522.529 272.847 522.697 274.917C522.865 276.986 522.269 279.046 521.02 280.705C519.771 282.364 517.957 283.508 515.921 283.919C513.886 284.33 511.77 283.98 509.975 282.936V282.936Z" fill="#FFB8B8"/>
<path d="M480.735 146.617C491.389 146.617 500.025 137.981 500.025 127.328C500.025 116.674 491.389 108.038 480.735 108.038C470.082 108.038 461.446 116.674 461.446 127.328C461.446 137.981 470.082 146.617 480.735 146.617Z" fill="#FFB8B8"/>
<path d="M509.852 261.232H451.697L451.767 260.779C451.872 260.103 462.132 192.892 454.565 170.904C453.805 168.743 453.872 166.377 454.752 164.263C455.632 162.148 457.263 160.434 459.331 159.45H459.332C470.148 154.357 490.91 148.085 508.434 163.306C511.012 165.582 513.026 168.428 514.315 171.617C515.605 174.806 516.135 178.251 515.863 181.68L509.852 261.232Z" fill="#38D39F"/>
<path d="M462.867 202.825L436.685 197.513L448.957 168.431C449.692 165.614 451.513 163.203 454.023 161.728C456.532 160.252 459.524 159.832 462.343 160.56C465.161 161.288 467.576 163.103 469.058 165.609C470.539 168.115 470.966 171.106 470.246 173.926L462.867 202.825Z" fill="#38D39F"/>
<path d="M496.399 212.687L494.825 176.606C493.632 169.823 497.515 163.411 503.486 162.363C509.459 161.319 515.292 166.023 516.491 172.856L522.407 206.57L496.399 212.687Z" fill="#38D39F"/>
<path d="M507.917 256.912C517.275 292.55 518.296 337.861 515.771 387.285L503.205 385.714L480.429 291.469L467.863 387.285L453.726 386.5C449.503 334.641 445.391 290.122 452.156 260.839L507.917 256.912Z" fill="#2F2E41"/>
<path d="M493.445 142.235C489.847 146.069 483.164 144.011 482.695 138.774C482.658 138.368 482.661 137.958 482.703 137.552C482.945 135.233 484.285 133.127 483.964 130.677C483.891 130.068 483.664 129.487 483.304 128.99C480.437 125.15 473.705 130.707 470.999 127.231C469.339 125.099 471.29 121.743 470.016 119.361C468.336 116.217 463.357 117.768 460.235 116.046C456.762 114.13 456.97 108.801 459.256 105.559C462.045 101.606 466.934 99.4962 471.762 99.1922C476.59 98.8882 481.385 100.193 485.893 101.95C491.014 103.946 496.093 106.704 499.245 111.208C503.078 116.684 503.446 124.047 501.53 130.451C500.363 134.346 496.384 139.105 493.445 142.235Z" fill="#2F2E41"/>
<path d="M659.704 408.117H79.8633C79.6158 408.117 79.3786 408.018 79.2039 407.842C79.0291 407.667 78.9309 407.43 78.9309 407.182C78.9309 406.935 79.0291 406.697 79.2039 406.522C79.3786 406.347 79.6158 406.248 79.8633 406.247H659.704C659.952 406.248 660.189 406.347 660.364 406.522C660.539 406.697 660.637 406.935 660.637 407.182C660.637 407.43 660.539 407.667 660.364 407.842C660.189 408.018 659.952 408.117 659.704 408.117V408.117Z" fill="#3F3D56"/>
<path d="M368.343 322.398H266.244C264.899 322.406 263.606 321.879 262.649 320.935C261.692 319.99 261.149 318.704 261.139 317.36V89.4668C261.149 88.1221 261.692 86.8365 262.649 85.892C263.606 84.9474 264.899 84.4211 266.244 84.4283H368.343C369.688 84.4211 370.98 84.9474 371.937 85.892C372.894 86.8365 373.438 88.1221 373.448 89.4668V317.36C373.438 318.704 372.894 319.99 371.937 320.935C370.98 321.879 369.688 322.406 368.343 322.398V322.398Z" fill="white"/>
<path d="M373.448 158.167H261.139V159.738H373.448V158.167Z" fill="#CCCCCC"/>
<path d="M373.841 247.787H261.531V249.358H373.841V247.787Z" fill="#CCCCCC"/>
<path d="M298.051 84.4282H296.481V323.184H298.051V84.4282Z" fill="#CCCCCC"/>
<path d="M337.32 84.4282H335.75V323.184H337.32V84.4282Z" fill="#CCCCCC"/>
</g>
<defs>
<clipPath id="clip0">
<rect width="683.28" height="408.506" fill="white"/>
</clipPath>
</defs>
</svg>
