<svg width="1010" height="840" viewBox="0 0 1010 840" fill="none" xmlns="http://www.w3.org/2000/svg">
<g clip-path="url(#clip0)">
<path opacity="0.1" d="M586.55 111.4C521.83 109.15 460.19 88.26 401.33 65.4C342.47 42.54 284.17 17.21 221 5.10001C180.37 -2.68999 133.9 -3.78999 101.17 17.99C69.66 38.99 59.48 75.14 54.01 108.72C49.89 133.98 47.47 160.57 58.75 184.21C66.59 200.63 80.49 214.43 90.11 230.16C123.58 284.88 99.92 352.36 63.66 405.79C46.66 430.86 26.91 454.79 13.78 481.45C0.649959 508.11 -5.42004 538.7 6.06996 565.92C17.45 592.92 44.58 613.16 73.97 627.41C133.66 656.36 203.97 664.64 272.58 669.33C424.41 679.72 577.04 675.22 729.27 670.72C785.61 669.05 842.19 667.36 897.61 658.65C928.39 653.81 960.16 646.14 982.51 627.6C1010.87 604.07 1017.9 564.23 998.89 534.72C967.01 485.23 878.89 472.94 856.58 419.83C844.32 390.59 856.91 358.03 874.74 330.91C912.98 272.75 977.07 221.72 980.44 155.24C982.76 109.58 951.95 63.85 904.31 42.24C854.38 19.6 785.13 22.44 748.31 59.93C710.36 98.53 643.7 113.38 586.55 111.4Z" fill="#38D39F"/>
<path opacity="0.1" d="M404.77 784.3C404.77 784.3 412.94 781.78 416.33 786.56Z" fill="black"/>
<path opacity="0.1" d="M594.04 785.3C594.04 785.3 580.51 784.51 581.04 788.17Z" fill="black"/>
<path opacity="0.1" d="M864.17 777.89C879.043 777.89 891.1 775.853 891.1 773.34C891.1 770.827 879.043 768.79 864.17 768.79C849.297 768.79 837.24 770.827 837.24 773.34C837.24 775.853 849.297 777.89 864.17 777.89Z" fill="#38D39F"/>
<path opacity="0.1" d="M91.09 815.23C105.963 815.23 118.02 813.193 118.02 810.68C118.02 808.167 105.963 806.13 91.09 806.13C76.217 806.13 64.16 808.167 64.16 810.68C64.16 813.193 76.217 815.23 91.09 815.23Z" fill="#38D39F"/>
<path opacity="0.1" d="M195.26 839.64C210.133 839.64 222.19 837.603 222.19 835.09C222.19 832.577 210.133 830.54 195.26 830.54C180.387 830.54 168.33 832.577 168.33 835.09C168.33 837.603 180.387 839.64 195.26 839.64Z" fill="#38D39F"/>
<path d="M805.22 828.9C827.427 828.9 845.43 825.856 845.43 822.1C845.43 818.344 827.427 815.3 805.22 815.3C783.013 815.3 765.01 818.344 765.01 822.1C765.01 825.856 783.013 828.9 805.22 828.9Z" fill="#38D39F"/>
<path d="M821.85 810.98C823.683 809.481 825.018 807.463 825.68 805.19C826.18 802.9 825.2 800.19 823 799.3C820.54 798.36 817.91 800.07 815.92 801.79C813.93 803.51 811.64 805.48 809.03 805.11C810.373 803.895 811.379 802.353 811.948 800.633C812.518 798.914 812.632 797.077 812.28 795.3C812.163 794.563 811.848 793.872 811.37 793.3C810.01 791.84 807.53 792.46 805.9 793.62C800.7 797.27 799.25 804.34 799.22 810.69C798.69 808.4 799.14 806.01 799.12 803.69C799.1 801.37 798.47 798.69 796.48 797.46C795.252 796.801 793.873 796.477 792.48 796.52C790.14 796.43 787.54 796.67 785.94 798.38C783.94 800.5 784.48 804.06 786.2 806.38C787.92 808.7 790.55 810.19 792.97 811.8C794.906 812.954 796.557 814.53 797.8 816.41C797.95 816.673 798.071 816.951 798.16 817.24H812.77C816.064 815.571 819.119 813.465 821.85 810.98V810.98Z" fill="#38D39F"/>
<g clip-path="url(#clip1)">
<path d="M785.641 748.216C719.623 762.811 633.23 760.052 540.526 748.323C464.699 738.73 379.185 714.736 309.78 686.803C316.945 679.556 326.324 674.907 336.431 673.593C336.714 673.55 337.006 673.508 337.297 673.476C342.415 672.864 347.587 672.865 352.703 673.479C417.519 680.754 405.624 716.232 493.059 676.443C547.436 651.698 605.928 648.215 644.547 656.619C645.259 656.774 645.962 656.932 646.663 657.095C669.002 662.307 684.28 671.59 687.583 683.024C696.599 714.213 656.244 733.146 725.51 734.513C744.73 734.892 766.262 743.471 785.641 748.216Z" fill="#3F3D56"/>
<path d="M1050.22 784.445C1023.71 782.302 997.265 778.236 970.906 774.813C933.746 769.987 896.605 765.013 859.484 759.892C785.896 749.82 712.352 739.427 638.787 729.188C564.707 718.877 490.607 708.715 416.486 698.702C347.78 689.417 279.047 680.335 210.287 671.455C158.674 664.87 107.027 658.503 55.2487 653.345C51.2723 652.949 47.2954 652.557 43.3182 652.168C41.5546 651.995 41.5666 654.752 43.3182 654.924C91.5372 659.651 139.645 665.305 187.716 671.351C256.318 679.978 324.856 689.114 393.379 698.341C467.503 708.323 541.606 718.455 615.689 728.737C688.942 738.901 762.168 749.257 835.432 759.347C903.392 768.707 971.373 778.423 1039.55 786.105C1043.1 786.505 1046.65 786.912 1050.22 787.2C1051.99 787.343 1051.98 784.587 1050.22 784.445V784.445Z" fill="#3F3D56"/>
<path d="M419.851 399.178C419.851 399.178 406.78 459.784 424.605 458.596C442.43 457.407 434.112 402.743 434.112 402.743L419.851 399.178Z" fill="#A0616A"/>
<path d="M491.153 687.947L499.471 731.915L518.485 729.539L512.543 682.005L491.153 687.947Z" fill="#A0616A"/>
<path d="M587.409 645.166L592.162 677.251H617.117L612.364 647.543L587.409 645.166Z" fill="#A0616A"/>
<path d="M472.139 369.469C472.139 369.469 451.937 408.685 459.067 506.129C466.197 603.574 466.197 696.265 466.197 696.265L517.296 692.7L531.556 450.277L587.409 660.615L624.247 657.05L614.741 451.465L585.032 352.833L472.139 369.469Z" fill="#2F2E41"/>
<path d="M506.601 711.714C506.601 711.714 510.166 701.018 504.224 701.018H491.152C491.152 701.018 476.892 727.162 468.574 729.539C460.255 731.916 434.112 754.494 459.067 756.871C484.022 759.248 522.049 746.176 522.049 741.422C522.049 736.669 518.484 716.467 518.484 716.467L506.601 711.714Z" fill="#2F2E41"/>
<path d="M611.175 670.121C611.175 670.121 589.33 664.079 590.746 667.694C592.162 671.31 587.409 682.005 587.409 682.005C587.409 682.005 575.525 749.741 611.175 743.799C646.826 737.857 620.682 686.758 620.682 686.758L615.404 666.542L611.175 670.121Z" fill="#2F2E41"/>
<path d="M511.354 112.786C531.044 112.786 547.005 96.8249 547.005 77.1357C547.005 57.4465 531.044 41.4853 511.354 41.4853C491.665 41.4853 475.704 57.4465 475.704 77.1357C475.704 96.8249 491.665 112.786 511.354 112.786Z" fill="#A0616A"/>
<path d="M487.587 96.1494C487.587 96.1494 493.529 130.611 489.964 137.742C486.399 144.872 518.484 159.132 518.484 159.132L535.121 118.728V96.1494L487.587 96.1494Z" fill="#A0616A"/>
<path d="M506.601 136.553C506.601 136.553 495.783 138.144 491.091 130.219C486.399 122.293 475.704 185.275 475.704 185.275C475.704 185.275 480.457 268.46 474.515 287.473C468.574 306.487 469.762 313.617 472.139 317.182C474.515 320.747 481.646 315.994 475.704 325.5C469.762 335.007 469.762 329.066 469.762 338.572C469.762 348.079 467.385 382.541 467.385 382.541L595.727 373.034L535.121 112.786C535.121 112.786 514.919 137.741 506.601 136.553Z" fill="#3F3D56"/>
<path d="M556.512 125.858C556.512 125.858 605.234 132.988 607.611 143.683C609.987 154.378 657.521 451.465 632.566 466.914C607.611 482.362 526.803 494.246 523.238 478.797C519.673 463.349 500.659 148.437 535.121 112.786L556.512 125.858Z" fill="#D0CDE1"/>
<path d="M625.142 438.892H615.163C615.163 438.892 618.234 402.816 615.163 399.49C615.163 399.49 587.275 396.42 559.131 427.122C559.131 427.122 563.992 393.605 600.324 391.814C611.97 391.241 618.702 395.872 622.468 402.432C630.456 416.336 625.142 438.892 625.142 438.892Z" fill="#3F3D56"/>
<path opacity="0.15" d="M625.142 438.892H615.163C615.163 438.892 618.234 402.816 615.163 399.49L622.468 402.432C630.456 416.336 625.142 438.892 625.142 438.892Z" fill="black"/>
<path d="M566.551 415.353L552.734 438.892H559.131C559.131 438.892 560.154 421.494 566.551 415.353Z" fill="#3F3D56"/>
<path opacity="0.15" d="M566.551 415.353L552.734 438.892H559.131C559.131 438.892 560.154 421.494 566.551 415.353Z" fill="black"/>
<path d="M684.501 538.42C684.689 542.374 683.914 546.314 682.243 549.901C680.571 553.489 678.054 556.617 674.906 559.016C674.906 559.016 547.745 589.208 533.673 586.649C531.943 586.325 530.263 585.774 528.676 585.012C517.459 579.69 510.39 565.157 510.39 565.157C510.39 565.157 510.178 561.401 509.863 555.281C509.259 543.445 508.282 522.764 507.742 503.296C507.21 484.061 507.105 466.013 508.215 458.849C511.03 440.683 530.475 439.148 530.475 439.148L659.938 433.519C664.191 433.476 668.428 434.031 672.526 435.167C686.522 439.37 684.501 450.15 684.501 450.15C684.501 450.15 683.989 524.604 684.501 538.42Z" fill="#575A89"/>
<path d="M672.526 435.167C664.592 437.638 645.518 443.088 638.702 440.683C630.003 437.613 562.713 439.659 538.151 442.474C513.588 445.288 522.287 511.811 522.287 511.811L507.742 503.296C507.21 484.061 507.105 466.013 508.215 458.849C511.03 440.683 530.475 439.148 530.475 439.148L659.938 433.519C664.191 433.476 668.428 434.031 672.526 435.167V435.167Z" fill="#3F3D56"/>
<path d="M579.599 482.899C579.599 482.899 567.276 414.018 589.941 404.579L592.904 404.607C592.904 404.607 585.74 414.074 588.554 431.472C591.369 448.87 589.834 488.528 589.834 488.528C589.834 488.528 581.134 493.645 579.599 482.899Z" fill="#2F2E41"/>
<path d="M588.554 406.91C588.554 406.91 602.115 385.162 626.933 397.187C651.751 409.213 654.054 436.589 654.054 436.589C654.054 436.589 636.911 386.441 588.554 406.91Z" fill="#2F2E41"/>
<path d="M655.845 485.714L651.751 459.36L653.798 434.685L658.914 460.128L661.217 485.714H655.845Z" fill="#2F2E41"/>
<path d="M609.79 482.643L624.118 479.061L638.702 480.852V487.249L625.398 491.343L609.79 489.807V482.643Z" fill="#2F2E41"/>
<path d="M526.381 575.263C526.734 578.596 527.505 581.871 528.676 585.012C517.46 579.69 510.39 565.157 510.39 565.157C510.39 565.157 510.178 561.401 509.863 555.281L519.217 559.144L526.381 575.263Z" fill="#3F3D56"/>
<path d="M532.522 589.336C531.865 589.181 531.265 588.846 530.79 588.368C532.708 589.141 533.517 589.545 532.522 589.336Z" fill="#2F2E41"/>
<path d="M491.083 127.641L444.807 173.392L461.444 321.935C461.444 321.935 428.17 497.811 447.184 497.811C466.197 497.811 463.82 500.188 467.385 487.116C470.95 474.044 491.083 127.641 491.083 127.641Z" fill="#D0CDE1"/>
<path d="M456.69 169.827L444.807 173.392C444.807 173.392 434.112 181.71 435.3 199.536C436.488 217.361 434.112 268.46 434.112 268.46C434.112 268.46 426.982 279.155 430.547 292.227L413.91 406.308L450.749 412.25L463.82 352.833L456.69 169.827Z" fill="#D0CDE1"/>
<path d="M604.045 358.774C604.045 358.774 589.785 433.64 604.045 428.887C618.306 424.133 636.131 371.846 624.247 363.528C612.364 355.209 604.045 358.774 604.045 358.774Z" fill="#A0616A"/>
<path d="M475.619 81.3165C475.619 81.3165 471.98 75.8571 473.38 69.9777C474.216 66.6397 474.546 63.1949 474.36 59.7588C474.36 59.7588 477.299 50.2398 480.239 44.9204C483.179 39.6009 481.779 37.3612 491.018 35.6813C500.257 34.0015 496.477 21.9628 520.835 34.9814C521.656 36.1288 522.8 37.0071 524.12 37.5053C525.44 38.0036 526.879 38.0996 528.254 37.7811C533.293 36.8012 535.113 43.8005 535.113 43.8005C535.113 43.8005 538.473 41.8407 539.733 44.6404C540.992 47.4401 549.976 42.9601 549.976 61.8581C549.976 80.7561 539.753 97.6368 539.753 97.6368C539.753 97.6368 540.502 65.8481 523.844 62.6285C507.186 59.4088 489.268 50.0298 484.928 62.0685C482.586 68.8253 479.462 75.2851 475.619 81.3165V81.3165Z" fill="#2F2E41"/>
<path d="M259.624 725.168C250.263 722.598 215.365 726.068 215.365 726.068C216.962 729.18 218.84 732.14 220.975 734.911L227.891 730.584L223.179 737.532C224.446 738.941 225.854 740.218 227.379 741.343L238.024 734.685L231.931 743.668C231.995 743.687 232.059 743.707 232.123 743.725C241.484 746.295 255.229 744.225 262.823 739.101C270.418 733.977 268.985 727.739 259.624 725.168Z" fill="#3F3D56"/>
<path d="M285.343 710.472C275.982 707.901 241.084 711.372 241.084 711.372C242.681 714.483 244.559 717.443 246.694 720.214L253.61 715.888L248.898 722.835C250.165 724.244 251.573 725.521 253.098 726.647L263.743 719.988L257.65 728.971C257.714 728.99 257.778 729.01 257.843 729.028C267.204 731.599 280.948 729.529 288.543 724.404C296.137 719.28 294.704 713.042 285.343 710.472Z" fill="#3F3D56"/>
<path d="M559.068 768.34C549.707 765.769 514.808 769.24 514.808 769.24C516.406 772.351 518.283 775.311 520.418 778.082L527.335 773.756L522.622 780.703C523.89 782.112 525.297 783.389 526.823 784.515L537.468 777.856L531.375 786.839C531.439 786.858 531.503 786.878 531.567 786.896C540.928 789.467 554.673 787.396 562.267 782.272C569.861 777.148 568.429 770.91 559.068 768.34Z" fill="#3F3D56"/>
<path d="M285.343 748.132C275.982 745.561 241.084 749.032 241.084 749.032C242.681 752.144 244.559 755.103 246.694 757.874L253.61 753.548L248.898 760.495C250.165 761.904 251.573 763.181 253.098 764.307L263.743 757.648L257.65 766.631C257.714 766.65 257.778 766.67 257.843 766.688C267.204 769.259 280.948 767.189 288.543 762.064C296.137 756.94 294.704 750.702 285.343 748.132Z" fill="#3F3D56"/>
<path d="M587.409 136.553C587.409 136.553 614.741 131.8 620.682 167.45C626.624 203.101 642.073 273.213 642.073 273.213L637.829 380.194L598.104 367.093L599.292 285.097L579.09 162.697L587.409 136.553Z" fill="#D0CDE1"/>
<path opacity="0.15" d="M577.308 184.681L592.756 285.691L589.191 371.252L605.828 288.067L577.308 184.681Z" fill="black"/>
</g>
</g>
<defs>
<clipPath id="clip0">
<rect width="1009.54" height="839.64" fill="white"/>
</clipPath>
<clipPath id="clip1">
<rect width="1009.54" height="759" fill="white" transform="translate(42 29)"/>
</clipPath>
</defs>
</svg>
